<svg width="24" height="26" viewBox="0 0 24 26" fill="none" xmlns="http://www.w3.org/2000/svg">
<path d="M20.25 7.87501H12.5053L10.0678 5.12907C9.89133 4.9306 9.67471 4.77189 9.43228 4.66344C9.18985 4.555 8.92714 4.49929 8.66156 4.50001H3.75C3.25272 4.50001 2.77581 4.69755 2.42417 5.04918C2.07254 5.40081 1.875 5.87773 1.875 6.37501V20.3081C1.87574 20.7898 2.0674 21.2515 2.40797 21.592C2.74854 21.9326 3.21024 22.1243 3.69188 22.125H20.3334C20.8084 22.1245 21.2638 21.9356 21.5997 21.5997C21.9356 21.2638 22.1245 20.8084 22.125 20.3334V9.75001C22.125 9.25273 21.9275 8.77581 21.5758 8.42418C21.2242 8.07255 20.7473 7.87501 20.25 7.87501ZM4.125 6.75001H8.49469L9.495 7.87501H4.125V6.75001ZM19.875 19.875H4.125V10.125H19.875V19.875Z" fill="#343330"/>
</svg>
